<?xml version="1.0" encoding="UTF-8" standalone="no"?>
<!DOCTYPE svg PUBLIC "-//W3C//DTD SVG 1.1//EN" "http://www.w3.org/Graphics/SVG/1.1/DTD/svg11.dtd">
<svg width="100%" height="100%" viewBox="0 0 700 700" version="1.1" xmlns="http://www.w3.org/2000/svg" xmlns:xlink="http://www.w3.org/1999/xlink" xml:space="preserve" xmlns:serif="http://www.serif.com/" style="fill-rule:evenodd;clip-rule:evenodd;stroke-linejoin:round;stroke-miterlimit:2;">
    <g transform="matrix(0.940178,0,0,0.940178,11.365,7.17756)">
        <g transform="matrix(-0.156321,-0.117457,-0.117457,0.156321,693.871,265.999)">
            <path d="M961.465,2039.18C1694.05,2181.52 1985.96,1444.41 1919.32,1662.91C2000.73,1614.52 1833.95,1845.83 1780.34,1894.81C1673.44,1992.47 1611.85,2081.63 1579.74,2239.32C1554.48,2363.44 1544.99,2525.04 1573.89,2676.67C1621.39,2925.87 1474.16,3007.83 1360.55,2967.02C1166.1,2897.18 1268.34,2681.04 1298.44,2546.28C1334.96,2382.78 1355.93,2194.36 1234.07,2249.64C1184.99,2271.91 1119.81,2471.56 1060.18,2236.24C1017.89,2069.39 877.641,2246.54 986.105,2452.28C1131.38,2727.85 756.168,2824.1 793.047,2473.12C812.391,2289.03 804.812,2056.63 673.944,2149.29C537.43,2245.94 690.521,2498.37 514.973,2480.93C410.948,2470.59 444.769,2359.19 465.669,2255.62C503.15,2069.88 357.249,1689.3 301.923,1547.36C221.05,1389.26 687.012,1985.85 961.465,2039.18Z" style="fill:rgb(72,179,255);"/>
        </g>
        <g transform="matrix(0.747693,0,0,0.747693,99.5966,29.7552)">
            <path d="M367.074,139.242C501.125,139.242 609.958,248.074 609.958,382.126C609.958,516.177 501.125,625.01 367.074,625.01C233.022,625.01 124.19,516.177 124.19,382.126C124.19,248.074 233.022,139.242 367.074,139.242ZM367.074,213.714C460.023,213.714 535.486,289.176 535.486,382.126C535.486,475.075 460.023,550.538 367.074,550.538C274.125,550.538 198.662,475.075 198.662,382.126C198.662,289.176 274.125,213.714 367.074,213.714Z" style="fill:rgb(72,179,255);"/>
        </g>
    </g>
</svg>
